<?xml version="1.0" standalone="no"?>
<!DOCTYPE svg PUBLIC "-//W3C//DTD SVG 20010904//EN"
 "http://www.w3.org/TR/2001/REC-SVG-20010904/DTD/svg10.dtd">
<svg version="1.0" xmlns="http://www.w3.org/2000/svg"
 width="310.000000pt" height="310.000000pt" viewBox="0 0 310.000000 310.000000"
 preserveAspectRatio="xMidYMid meet">
<metadata>
Created by potrace 1.11, written by Peter Selinger 2001-2013
</metadata>
<g transform="translate(0.000000,310.000000) scale(0.100000,-0.100000)"
fill="#000000" stroke="none">
<path d="M2075 2618 c2 -266 6 -496 8 -513 3 -16 8 -55 12 -85 4 -30 8 -59 8
-65 4 -24 -24 -6 -61 39 -185 224 -525 316 -857 230 -261 -68 -465 -285 -559
-595 -31 -102 -32 -108 -55 -269 -17 -124 -10 -416 14 -575 11 -74 58 -229 91
-303 151 -333 425 -498 796 -479 62 3 124 9 138 12 14 3 36 8 50 11 42 9 138
50 197 85 56 34 169 138 199 184 9 14 22 25 28 25 7 0 25 -46 40 -102 48 -176
49 -178 71 -179 27 -1 283 -1 318 0 l27 1 0 1530 0 1530 -235 0 -235 0 5 -482z
m-375 -759 c203 -42 328 -194 375 -454 25 -143 25 -445 -1 -595 -12 -68 -53
-182 -84 -233 -64 -104 -191 -177 -337 -195 -277 -32 -453 64 -546 300 -75
188 -92 516 -38 750 51 220 166 368 326 421 77 25 200 28 305 6z"/>
</g>
</svg>
